<svg width="100" height="100" viewBox="0 0 100 100" fill="none" xmlns="http://www.w3.org/2000/svg">
<rect width="100" height="100" rx="8" fill="#FFA800" fill-opacity="0.14"/>
<path d="M47.0108 16.2678C48.4381 13.2441 52.5619 13.2441 53.9892 16.2678L61.945 33.1223C62.5117 34.323 63.6073 35.1552 64.8747 35.3478L82.6642 38.0505C85.8557 38.5354 87.1301 42.6361 84.8207 44.9898L71.9481 58.1091C71.031 59.0438 70.6125 60.3904 70.829 61.7101L73.8678 80.2349C74.413 83.5584 71.0767 86.0927 68.2221 84.5236L52.3107 75.7774C51.1771 75.1543 49.8229 75.1543 48.6893 75.7774L32.7779 84.5236C29.9233 86.0927 26.587 83.5584 27.1322 80.2349L30.171 61.7101C30.3875 60.3904 29.969 59.0438 29.0519 58.1091L16.1793 44.9898C13.8699 42.6361 15.1443 38.5354 18.3358 38.0505L36.1253 35.3478C37.3927 35.1552 38.4883 34.323 39.055 33.1223L47.0108 16.2678Z" fill="#FFA800"/>
<path fill-rule="evenodd" clip-rule="evenodd" d="M49.7202 14.0802V38.3534C49.7202 45.5516 56.7924 50.62 63.6089 48.3069L85.7914 40.7793C85.3535 39.4172 84.2433 38.2906 82.663 38.0505L64.8734 35.3478C63.6061 35.1552 62.5105 34.323 61.9437 33.1223L53.988 16.2678C53.1401 14.4716 51.3407 13.7424 49.7202 14.0802Z" fill="#FFBA00"/>
<path fill-rule="evenodd" clip-rule="evenodd" d="M28.6757 84.2099C27.5555 83.3565 26.8599 81.8938 27.1322 80.2343L30.171 61.7094C30.3875 60.3897 29.969 59.0431 29.052 58.1085L16.1793 44.9891C14.8424 43.6266 14.7065 41.6786 15.4482 40.1855L37.5057 46.4246C44.3899 48.3719 47.3595 56.4785 43.3619 62.4118L28.6757 84.2099Z" fill="#FFBA00"/>
<path d="M49.3151 38.1351C49.8001 37.0956 51.2013 37.0956 51.6863 38.1351L54.3895 43.9297C54.582 44.3425 54.9543 44.6286 55.3849 44.6948L61.4295 45.624C62.5139 45.7907 62.9469 47.2006 62.1622 48.0097L57.7883 52.5202C57.4767 52.8415 57.3345 53.3045 57.4081 53.7582L58.4406 60.127C58.6258 61.2696 57.4922 62.1409 56.5223 61.6015L51.1159 58.5945C50.7307 58.3803 50.2706 58.3803 49.8855 58.5945L44.479 61.6015C43.5091 62.1409 42.3755 61.2696 42.5608 60.127L43.5933 53.7582C43.6668 53.3045 43.5247 52.8415 43.2131 52.5202L38.8392 48.0097C38.0545 47.2006 38.4875 45.7907 39.5719 45.624L45.6164 44.6948C46.0471 44.6286 46.4193 44.3425 46.6119 43.9297L49.3151 38.1351Z" fill="white"/>
</svg>
